<?xml version="1.0" encoding="UTF-8" standalone="no"?>
<!-- Created with Inkscape (http://www.inkscape.org/) -->

<svg
   version="1.1"
   id="svg1"
   width="1160"
   height="772"
   viewBox="0 0 1160 772"
   sodipodi:docname="clover.svg"
   inkscape:version="1.3 (0e150ed6c4, 2023-07-21)"
   xmlns:inkscape="http://www.inkscape.org/namespaces/inkscape"
   xmlns:sodipodi="http://sodipodi.sourceforge.net/DTD/sodipodi-0.dtd"
   xmlns="http://www.w3.org/2000/svg"
   xmlns:svg="http://www.w3.org/2000/svg">
  <defs
     id="defs1" />
  <sodipodi:namedview
     id="namedview1"
     pagecolor="#ffffff"
     bordercolor="#000000"
     borderopacity="0.25"
     inkscape:showpageshadow="2"
     inkscape:pageopacity="0.0"
     inkscape:pagecheckerboard="0"
     inkscape:deskcolor="#d1d1d1"
     inkscape:zoom="1.0531088"
     inkscape:cx="580.18696"
     inkscape:cy="310.03444"
     inkscape:window-width="1920"
     inkscape:window-height="1009"
     inkscape:window-x="-8"
     inkscape:window-y="-8"
     inkscape:window-maximized="1"
     inkscape:current-layer="svg1" />
  <path
     style="fill:#000000"
     d="m 535.93161,614.01711 c -9.96967,-1.74445 -21.17446,-9.75228 -25.71679,-18.37926 -2.38989,-4.53898 -2.70521,-6.24517 -2.70521,-14.63785 0,-12.15624 1.44605,-15.03522 17.27181,-34.38706 6.44522,-7.88126 12.4797,-15.40582 13.40995,-16.72125 5.4844,-7.75522 7.04546,-10.07551 11.17258,-16.6064 2.50759,-3.9681 4.14634,-7.46991 3.64167,-7.78182 -0.50467,-0.3119 -2.62489,0.18826 -4.7116,1.11148 -2.88011,1.27423 -6.92548,1.69678 -16.79402,1.75417 -11.74737,0.0683 -13.79994,-0.19629 -21.30191,-2.74617 -11.61014,-3.94622 -16.62987,-7.00991 -24.7354,-15.09673 -11.48181,-11.45531 -18.39983,-28.03065 -18.44533,-44.19443 -0.0199,-7.06693 -0.66391,-9.40465 -2.40664,-8.7359 -2.49285,0.95659 -18.84258,-1.58645 -25.39455,-3.94988 -29.85758,-10.77022 -45.29553,-41.15136 -37.7482,-74.28663 2.71159,-11.90481 8.87102,-22.67865 18.53203,-32.41553 4.675,-4.71172 10.525,-9.75413 13,-11.20536 11.76152,-6.89643 26.15206,-12.91636 34.04232,-14.24075 2.45172,-0.41152 5.54257,-1.15825 6.86855,-1.6594 l 2.41088,-0.91117 -3.00498,-3.21358 c -2.80336,-2.99798 -6.44447,-8.08414 -10.89118,-15.21359 -3.10121,-4.9722 -6.44112,-12.54751 -9.25877,-21 -2.47596,-7.42745 -2.66521,-9.21667 -2.6443,-25 0.0209,-15.80081 0.20932,-17.52905 2.6707,-24.5 6.9543,-19.69555 16.58917,-32.2842 32.30678,-42.21116 15.99559,-10.10252 36.40568,-12.77946 55.77331,-7.3151 12.87993,3.63393 24.58009,10.25468 31.66439,17.91786 l 2.43769,2.63689 3.06231,-2.89084 C 581.4691,175.27599 591.53325,168 592.46011,168 c 0.26434,0 2.85646,-1.08386 5.76025,-2.40857 C 605.0073,162.49523 613.27097,161 623.59569,161 c 8.67541,0 20.90609,1.98157 25.84356,4.18707 6.26526,2.79862 16.13109,8.10102 17.56075,9.43806 9.90289,9.26128 11.97412,11.69033 15.31102,17.95618 7.87861,14.79402 10.91896,32.18873 8.88386,50.82701 -1.0941,10.02015 -5.27247,26.65194 -7.3444,29.234 -0.94016,1.17163 1.44431,1.89174 14.64952,4.42419 8.98067,1.72228 23.69658,8.09764 30.82118,13.35263 5.3581,3.95205 16.28639,15.09625 19.43699,19.821 10.30028,15.44669 14.54146,36.70151 10.66494,53.44781 -4.43501,19.159 -16.43654,35.87366 -32.57928,45.37356 l -6.65617,3.91711 0.527,7.76069 c 1.32356,19.49087 -5.56633,37.26228 -20.03964,51.68918 -7.39602,7.3723 -13.92069,11.5647 -22.67502,14.56976 -5.2736,1.81024 -8.76412,2.23847 -18.5,2.26961 -10.68059,0.0342 -12.87877,-0.27276 -19.99241,-2.79149 -8.29079,-2.93552 -12.78558,-5.21671 -18.15473,-9.21389 l -3.14715,-2.34295 -0.63368,6.29023 c -2.44275,24.24811 -7.57754,53.1951 -10.51725,59.29024 -0.53054,1.1 -1.61997,4.25 -2.42096,7 -2.80318,9.62406 -9.81057,24.98462 -15.68845,34.38991 -15.55576,24.89101 -33.21333,35.59178 -53.01376,32.1272 z m 14.13476,-28.84425 C 554.76904,582.19052 560.80476,575.50145 565.56188,568 568.47762,563.4022 575,550.57109 575,549.43291 c 0,-0.34686 0.67258,-2.04866 1.49461,-3.78178 1.9973,-4.21095 5.33981,-15.53265 7.13015,-24.15113 0.79978,-3.85 2.06114,-9.5875 2.80302,-12.75 0.74189,-3.1625 0.98814,-5.75 0.54723,-5.75 -0.44092,0 -2.52817,3.35529 -4.63834,7.45621 -6.88212,13.37475 -7.97441,15.26992 -13.37485,23.20601 -7.98467,11.73366 -14.71432,20.58087 -25.35846,33.33778 -10.80622,12.95115 -11.39839,14.89386 -5.70548,18.7177 4.44116,2.98305 6.77001,2.87878 12.16849,-0.54484 z M 539.20121,480.57852 C 547.08935,478.46242 551,476.91247 551,475.90217 551,475.40598 551.6333,475 552.40733,475 c 1.6,0 9.73967,-8.71916 13.11711,-14.05098 5.62183,-8.87491 10.46085,-25.09601 12.51408,-41.94902 1.16188,-9.53678 1.8361,-11.52609 4.79225,-14.1399 2.22565,-1.96789 3.75698,-2.3601 9.21468,-2.3601 5.7805,0 6.86154,0.31608 9.25,2.70455 1.4875,1.4875 2.70455,2.94879 2.70455,3.24733 0,0.98443 6.31538,13.99735 8.03107,16.54812 0.92485,1.375 3.20871,5.13866 5.07524,8.3637 7.80864,13.49195 22.74008,25.35331 35.48487,28.18876 6.99787,1.55688 7.86774,1.55052 14.6313,-0.10698 6.73787,-1.6512 7.65073,-2.22191 14.4843,-9.05549 4.01127,-4.01127 7.29322,-7.78673 7.29322,-8.38991 0,-0.60318 0.95069,-2.98745 2.11265,-5.29839 1.36213,-2.70905 2.29372,-6.91726 2.62236,-11.84587 0.4673,-7.00817 0.25706,-8.17301 -2.52678,-14 -5.12963,-10.73707 -14.44846,-18.82331 -29.94882,-25.98752 -4.81768,-2.22672 -9.43441,-4.38846 -10.25941,-4.80388 -3.93793,-1.98291 -24.92944,-7.2602 -34.63359,-8.70693 -18.13357,-2.70343 -32.99185,-2.82081 -47.30088,-0.37368 -11.9819,2.04914 -24.53383,6.32005 -28.1246,9.56964 -0.87912,0.7956 -1.91338,1.44655 -2.29834,1.44655 -0.80161,0 -13.01147,9.22288 -16.40223,12.38964 -13.23,12.35599 -19.78953,20.73437 -24.74811,31.61036 -2.65548,5.82445 -2.96296,7.53931 -2.95851,16.5 0.005,9.20894 0.257,10.51419 3.19104,16.5 1.75235,3.575 4.21864,7.67805 5.48066,9.11788 3.63452,4.14664 10.31398,8.0295 17.06579,9.92055 7.8681,2.20371 12.26134,2.32905 18.92998,0.54009 z m -65.80005,-71.87687 c 3.21568,-1.12846 6.70321,-5.22382 14.64856,-17.20165 1.09451,-1.65 6.3434,-7.05 11.6642,-12 16.98704,-15.80323 23.40704,-22.40667 34.13234,-35.1076 2.70067,-3.19813 2.55612,-3.39685 -5.84626,-8.03706 -2.475,-1.36681 -6.3,-3.5781 -8.5,-4.91396 -11.41127,-6.92905 -13.37976,-7.25717 -32.60254,-5.43427 -17.24338,1.63519 -32.61341,7.43565 -43.59858,16.45357 -6.61344,5.42908 -9.32186,8.68793 -12.9147,15.53932 -2.71312,5.17379 -2.88418,6.21172 -2.88418,17.5 0,11.50427 0.12227,12.20655 2.95982,17 5.56682,9.40397 14.70912,15.79424 25.54018,17.85202 3.59707,0.6834 13.40025,-0.24636 17.40116,-1.65037 z m 237.8516,-21.83692 c 3.24338,-1.73581 4.69038,-2.93965 10.17981,-8.46918 12.46849,-12.55959 15.61262,-30.85612 8.04939,-46.84147 -2.88488,-6.09735 -11.11789,-15.56245 -16.2482,-18.67977 -2.05357,-1.24781 -3.95876,-2.55713 -4.23376,-2.90961 -1.05111,-1.34725 -14.94542,-6.06093 -20.59046,-6.98537 -17.52165,-2.86935 -28.37291,0.32756 -40.55768,11.94876 -2.4981,2.38256 -19.9976,14.87804 -33.03892,23.59137 -8.55352,5.71489 -8.96958,6.46617 -3.62196,6.54015 2.36996,0.0328 6.33402,0.4509 8.80902,0.92913 21.42189,4.13928 33.60276,7.3901 41.60953,11.10471 2.26024,1.0486 4.4261,1.90655 4.81301,1.90655 1.59852,0 13.71368,6.35627 20.06014,10.52464 3.74762,2.46145 6.93391,4.47536 7.08064,4.47536 0.66886,0 6.19556,4.93458 10.35646,9.24688 2.51912,2.61079 4.7223,4.74829 4.89596,4.75 0.17366,0.002 1.27032,-0.50775 2.43702,-1.13215 z M 582.90953,326.5 c 1.66228,-0.99788 6.36518,-4.06669 21.70851,-14.16557 4.46492,-2.93878 9.73689,-6.57876 11.71548,-8.08883 1.9786,-1.51008 5.75048,-4.30516 8.38197,-6.21129 6.92371,-5.01522 20.37646,-15.98572 23.26348,-18.97098 10.89236,-11.26301 17.775,-31.90489 16.69266,-50.06333 -0.91381,-15.33096 -6.92848,-27.68082 -16.37076,-33.61387 -9.48921,-5.96255 -12.8112,-6.88613 -24.76847,-6.88613 -10.10223,0 -11.47193,0.2317 -16.24548,2.74814 -7.24537,3.81948 -11.43303,7.75195 -14.23988,13.37212 -2.39576,4.79704 -2.39698,4.81728 -0.68554,11.34252 3.01944,11.51231 4.12348,30.18847 2.85671,48.32472 -1.12141,16.05509 -4.58996,34.56005 -7.75315,41.36363 -0.80578,1.73312 -1.46506,3.48954 -1.46506,3.90316 0,0.41361 -1.35,3.6093 -3,7.10154 -1.65,3.49223 -3,6.74321 -3,7.22439 0,0.48119 -0.675,1.43509 -1.5,2.11978 -0.825,0.68469 -1.5,1.88062 -1.5,2.65763 0,1.17691 0.35421,1.1982 2.12186,0.12755 1.16703,-0.70685 2.87148,-1.73518 3.78767,-2.28518 z m -27.02924,-16.50706 c 6.74815,-12.96199 9.28662,-22.30148 12.22906,-44.99294 1.20279,-9.27562 0.60794,-31.39888 -0.99485,-37 -0.55085,-1.925 -1.73259,-6.3387 -2.6261,-9.80822 -1.65357,-6.42092 -3.86596,-10.92887 -8.43568,-17.18851 -5.62594,-7.70645 -13.56361,-12.24831 -26.30215,-15.04982 l -9.63102,-2.1181 -8.11208,2.10275 c -9.20938,2.38719 -14.44813,5.45885 -21.06822,12.35305 -12.08948,12.59004 -17.48114,34.46439 -12.49888,50.70885 7.22011,23.54091 21.13628,38.8631 51.55963,56.76894 15.91237,9.36531 19.49896,11.24034 21,10.97855 0.825,-0.14388 3.02113,-3.18343 4.88029,-6.75455 z"
     id="path1" />
</svg>
