<?xml version="1.0" encoding="UTF-8" standalone="no"?>
<!-- Created with Inkscape (http://www.inkscape.org/) -->

<svg
   version="1.1"
   id="svg1"
   width="512"
   height="512"
   viewBox="0 0 512 511.99999"
   sodipodi:docname="logo-green.svg"
   inkscape:version="1.3 (0e150ed6c4, 2023-07-21)"
   xml:space="preserve"
   xmlns:inkscape="http://www.inkscape.org/namespaces/inkscape"
   xmlns:sodipodi="http://sodipodi.sourceforge.net/DTD/sodipodi-0.dtd"
   xmlns:xlink="http://www.w3.org/1999/xlink"
   xmlns="http://www.w3.org/2000/svg"
   xmlns:svg="http://www.w3.org/2000/svg"><defs
     id="defs1"><linearGradient
       id="linearGradient11"><stop
         style="stop-color:#225612;stop-opacity:1;"
         offset="0"
         id="stop10" /><stop
         style="stop-color:#54d62c;stop-opacity:1;"
         offset="1"
         id="stop11" /></linearGradient><linearGradient
       id="linearGradient9"><stop
         style="stop-color:#225612;stop-opacity:1;"
         offset="0"
         id="stop8" /><stop
         style="stop-color:#54d62c;stop-opacity:1;"
         offset="1"
         id="stop9" /></linearGradient><linearGradient
       id="linearGradient7"><stop
         style="stop-color:#225612;stop-opacity:1;"
         offset="0"
         id="stop6" /><stop
         style="stop-color:#54d62c;stop-opacity:1;"
         offset="1"
         id="stop7" /></linearGradient><linearGradient
       id="linearGradient5"><stop
         style="stop-color:#225612;stop-opacity:1;"
         offset="0"
         id="stop4" /><stop
         style="stop-color:#54d62c;stop-opacity:1;"
         offset="1"
         id="stop5" /></linearGradient><linearGradient
       id="linearGradient3"><stop
         style="stop-color:#225612;stop-opacity:1;"
         offset="0"
         id="stop2" /><stop
         style="stop-color:#54d62c;stop-opacity:1;"
         offset="1"
         id="stop3" /></linearGradient><linearGradient
       id="linearGradient34"><stop
         style="stop-color:#225612;stop-opacity:1;"
         offset="0"
         id="stop36" /><stop
         style="stop-color:#54d62c;stop-opacity:1;"
         offset="1"
         id="stop37" /></linearGradient><linearGradient
       inkscape:collect="always"
       xlink:href="#linearGradient34"
       id="linearGradient12"
       x1="599.5"
       y1="420.32098"
       x2="599.5"
       y2="528"
       gradientUnits="userSpaceOnUse"
       gradientTransform="translate(-325.70281,-126.3677)" /><linearGradient
       inkscape:collect="always"
       xlink:href="#linearGradient5"
       id="linearGradient23"
       x1="654"
       y1="277.5"
       x2="707.35815"
       y2="291.79727"
       gradientUnits="userSpaceOnUse"
       gradientTransform="translate(-325.70281,-126.3677)" /><linearGradient
       inkscape:collect="always"
       xlink:href="#linearGradient7"
       id="linearGradient30"
       x1="581"
       y1="326"
       x2="656.96332"
       y2="250.03665"
       gradientUnits="userSpaceOnUse"
       gradientTransform="translate(-325.70281,-126.3677)" /><linearGradient
       inkscape:collect="always"
       xlink:href="#linearGradient11"
       id="linearGradient42"
       x1="552"
       y1="363.5"
       x2="609.5"
       y2="363.5"
       gradientUnits="userSpaceOnUse"
       gradientTransform="translate(-325.70281,-126.3677)" /><linearGradient
       inkscape:collect="always"
       xlink:href="#linearGradient3"
       id="linearGradient44"
       x1="550.83618"
       y1="337.28995"
       x2="497.09604"
       y2="283.5498"
       gradientUnits="userSpaceOnUse"
       gradientTransform="translate(-325.70281,-126.3677)" /><linearGradient
       inkscape:collect="always"
       xlink:href="#linearGradient9"
       id="linearGradient47"
       x1="510.17755"
       y1="312.18765"
       x2="450.79929"
       y2="328.09802"
       gradientUnits="userSpaceOnUse"
       gradientTransform="translate(-325.70281,-126.3677)" /></defs><sodipodi:namedview
     id="namedview1"
     pagecolor="#ffffff"
     bordercolor="#000000"
     borderopacity="0.25"
     inkscape:showpageshadow="false"
     inkscape:pageopacity="0.0"
     inkscape:pagecheckerboard="true"
     inkscape:deskcolor="#d1d1d1"
     inkscape:zoom="1"
     inkscape:cx="366"
     inkscape:cy="286.5"
     inkscape:window-width="1920"
     inkscape:window-height="1009"
     inkscape:window-x="-8"
     inkscape:window-y="-8"
     inkscape:window-maximized="1"
     inkscape:current-layer="svg1"
     showborder="false"
     borderlayer="false"
     labelstyle="default"
     shape-rendering="auto" /><path
     id="path2"
     style="display:inline;fill:url(#linearGradient12);fill-opacity:1;stroke:#0a9441;stroke-width:0;stroke-dasharray:none;stroke-opacity:1"
     d="m 264.14686,286.35839 c -0.0333,0.002 0.13,0.0154 0.0976,0.0234 -0.14421,0.0364 -0.29443,0.037 -0.44336,0.0469 -0.0963,0.1979 -0.19178,0.39539 -0.28711,0.59375 -0.55671,1.29851 -1.06644,2.65191 -1.4121,4.02539 -0.26032,1.20879 -0.68884,2.38497 -0.99219,3.57422 -0.10486,0.55002 -0.14818,1.10936 -0.17188,1.66797 -0.0397,0.95852 -0.0506,1.91775 -0.0586,2.87695 -0.009,1.36221 -0.009,2.72372 -0.01,4.08594 0.0482,1.70593 -0.042,3.40429 -0.20507,5.10156 -0.14802,1.8859 -0.72616,3.69643 -1.20508,5.51563 -0.35436,1.62648 -0.9707,3.16726 -1.60547,4.69922 -0.45326,1.0867 -0.88764,2.1778 -1.36914,3.25195 -0.45612,0.86783 -0.83397,1.77285 -1.27344,2.65234 -0.59015,1.08643 -1.17091,2.17553 -1.7207,3.28321 -0.76387,1.59774 -1.5728,3.17164 -2.41993,4.72656 -0.73248,1.37738 -1.56912,2.69323 -2.3789,4.02539 -0.77111,1.25752 -1.52947,2.52227 -2.29492,3.7832 -0.86151,1.50857 -1.95154,2.86126 -2.9961,4.24219 -0.82058,1.22773 -1.84775,2.28033 -2.83008,3.37305 -0.52592,0.54865 -0.70272,0.80921 -1.03124,1.27734 -0.63786,0.90439 -1.42396,1.68565 -2.15821,2.50977 -0.6692,0.82586 -1.39927,1.60022 -2.09179,2.40625 -0.5141,0.6132 -1.03181,1.22011 -1.59766,1.78711 -0.40007,0.40089 -0.74554,0.66813 -0.45508,0.4414 -0.50064,0.63335 -1.07654,1.19532 -1.6543,1.75782 l -0.56445,0.46484 c -2.92604,2.41728 -4.25101,2.16217 -4.79101,0.625 0.3907,8.65417 1.09102,19.63409 1.09179,19.95117 l -0.0156,0.008 c 0.50467,0.31191 -1.13499,3.81317 -3.64258,7.78125 -4.12712,6.53089 -5.68748,8.85221 -11.17188,16.60743 -0.93025,1.31541 -6.96495,8.83946 -13.41015,16.7207 -15.82574,19.3518 -18.89649,26.41714 -18.89649,34.38672 0,5.83344 1.94019,10.09969 4.33008,14.63867 4.54233,8.62696 15.74715,16.63446 25.7168,18.37891 19.80039,3.46456 37.45795,-7.23599 53.01367,-32.12696 5.87786,-9.40527 12.88432,-24.76658 15.6875,-34.39062 7.76066,-21.23439 10.48861,-43.89973 12.93945,-66.28907 l 0.63282,-6.29101 -0.38282,-2.40625 c -0.76407,-1.63224 -2.02881,-7.80545 -3.02929,-17.4707 -2.855,-1.13402 -5.22239,-4.71277 -5.22239,-10.73846 v -0.55079 c 0,-0.5972 0.0231,-1.19594 -0.0312,-1.79101 -0.0483,-0.52682 0.0266,-0.65049 -0.0801,-0.42969 -0.2851,-0.931 -0.54955,-1.87739 -0.96679,-2.75977 -0.5755,-1.2321 -1.30832,-2.38365 -1.97266,-3.56835 -0.83785,-1.44801 -1.45405,-3.00679 -2.20508,-4.49805 -0.65361,-1.14799 -0.97625,-2.44074 -1.56641,-3.61719 -0.61033,-1.04085 -1.14607,-2.11495 -1.60937,-3.23047 -0.41751,-1.18336 -0.98176,-2.30378 -1.48828,-3.44922 -0.42545,-0.99173 -0.83012,-2.0015 -1.35742,-2.94531 -0.31025,-0.51136 -0.62646,-1.02368 -0.96485,-1.51758 -0.036,-0.0526 0.0623,0.11062 0.0937,0.16602 -0.14433,-0.009 -1.77595,-2.1575 -0.91406,-1.03125 -0.17334,-0.1479 -0.4,-0.41091 -0.61719,-0.66797 -0.0768,-0.033 -0.27624,-0.17157 -0.37109,-0.2168 -0.55755,-0.26602 -1.12008,-0.5158 -1.69922,-0.73047 -0.73391,-0.2643 -1.48057,-0.51193 -2.25195,-0.64062 -0.44125,-0.0696 -0.89345,-0.0754 -1.33985,-0.0898 -0.1263,-0.003 -0.25269,-0.0156 -0.3789,-0.01 z m -0.88282,0.12305 c -0.35354,0.0316 -0.48045,0.0283 -0.27343,0.0508 -0.30948,0.0955 0.11061,-0.0389 0.26172,-0.0449 v 0.002 c 0.004,-0.002 0.008,-0.005 0.0117,-0.008 z m 6.58594,1.16601 c -0.033,-0.0382 0.0508,0.0636 0.0957,0.11719 0.007,0.006 0.0123,0.0137 0.0195,0.0195 -0.0361,-0.0427 -0.0834,-0.0999 -0.11524,-0.13672 z m -8.57812,88.98438 c 0.44091,0 0.19501,2.5875 -0.54688,5.75 -0.74188,3.16248 -2.00295,8.9 -2.80273,12.75 -1.79034,8.61846 -5.13356,19.94141 -7.13086,24.15234 -0.82203,1.73312 -1.49414,3.43439 -1.49414,3.78125 0,1.13818 -6.52178,13.96861 -9.4375,18.56641 -4.75712,7.50143 -10.79343,14.19149 -15.4961,17.17383 -5.39846,3.4236 -7.72681,3.52795 -12.16797,0.54492 -5.69289,-3.82384 -5.10112,-5.76764 5.70508,-18.71875 10.64412,-12.75689 17.37277,-21.60425 25.35742,-33.33789 5.40044,-7.93609 6.4929,-9.83035 13.375,-23.20508 2.11017,-4.10092 4.19776,-7.45703 4.63868,-7.45703 z"
     sodipodi:nodetypes="cccccccccccccccccccccccsccccccssssssssccccsscccccccccsccccccccccccccccccccssssssssssss" /><path
     style="display:inline;fill:url(#linearGradient23);fill-opacity:1"
     d="m 354.25858,147.2027 c 1.6231,0.24355 5.3334,0.96366 18.53861,3.49611 8.98067,1.72228 23.69658,8.09764 30.82118,13.35263 5.3581,3.95205 16.28639,15.09625 19.43699,19.821 l -10.26003,8.22107 z m 49.52057,57.98368 c -5.13637,-9.21087 -11.11789,-15.56245 -16.2482,-18.67977 -2.05357,-1.24781 -3.95876,-2.55713 -4.23376,-2.90961 -1.05111,-1.34725 -14.94542,-6.06093 -20.59046,-6.98537 -17.52165,-2.86935 -28.37292,0.32755 -40.55768,11.94876 -1.24905,1.19128 16.07174,-42.52418 32.01512,-41.35746 12.46782,0.91238 74.75625,34.07566 68.23559,38.43233 -11.18054,7.47007 -18.1728,20.35416 -18.62061,19.55112 z"
     id="path4"
     sodipodi:nodetypes="csscccssssssss" /><path
     style="display:inline;fill:url(#linearGradient30);fill-opacity:1"
     d="m 256.13447,85.060631 c -5.1513,-5.64685 -18.65122,-20.41193 -10.57896,-27.02632 l 4.11707,-3.37352 3.06231,-2.89084 c 3.0314,-2.86166 13.09555,-10.13765 14.02241,-10.13765 0.26434,0 2.85646,-1.08386 5.76025,-2.40857 6.78694,-3.0962 15.05061,-4.59143 25.37533,-4.59143 8.67541,0 20.90609,1.98157 25.84356,4.18707 6.26526,2.79862 16.13109,8.10102 17.56075,9.43806 9.90289,9.26128 11.97412,11.69033 15.31102,17.95618 7.87861,14.79402 10.91896,32.18873 8.88386,50.827009 -1.0941,10.02015 -2.52067,16.56588 -7.52746,30.07239 -3.31013,8.92953 -8.40605,17.77432 -16.96039,25.99205 l -99.20257,47.89383 z m 85.55354,87.245119 c -7.08186,7.22433 -9.25277,8.83205 -19.53896,16.25464 -7.71545,5.56752 -19.9976,14.87804 -33.03892,23.59137 -8.55352,5.71489 -9.13109,6.17685 -11.62794,7.79763 -1.98805,1.29051 -45.53244,-1.41251 -43.05744,-0.93428 z m -84.48129,27.82655 c 1.66228,-0.99788 6.36518,-4.06669 21.70851,-14.16557 4.46492,-2.93878 9.73689,-6.57876 11.71548,-8.08883 1.9786,-1.51008 5.75048,-4.30516 8.38197,-6.21129 6.92371,-5.01522 20.37646,-15.98572 23.26348,-18.97098 10.89236,-11.26301 17.775,-31.90489 16.69266,-50.06333 -0.91381,-15.330959 -6.92848,-27.680819 -16.37076,-33.613869 -9.48921,-5.96255 -12.8112,-6.88613 -24.76847,-6.88613 -10.10223,0 -11.47193,0.2317 -16.24548,2.74814 -7.24537,3.81948 -11.43303,7.75195 -14.23988,13.37212 -2.39576,4.79704 -2.39698,4.81728 -0.68554,11.34252 3.01944,11.512309 1.82538,30.011689 0.55861,48.147939 -0.42759,23.18762 -8.37062,46.15355 -18.60761,66.48494 0,1.17691 3.04171,-0.73983 4.80936,-1.81048 1.16703,-0.70685 2.87148,-1.73518 3.78767,-2.28518 z"
     id="path3"
     sodipodi:nodetypes="cscsssssssssccccsssccsssssssssssssss" /><path
     style="display:inline;fill:url(#linearGradient42);fill-opacity:1"
     d="m 227.37826,221.43608 c 10.75,1.75381 100.126,9.33117 104.88831,9.71538 7.18585,0.57973 14.92228,3.02377 15.34535,9.3211 0.79676,11.85952 -9.02362,21.44577 -12.05532,20.02804 -4.80767,-2.24824 -9.43441,-4.38846 -10.25941,-4.80388 -3.93793,-1.98291 -24.92944,-7.2602 -34.63359,-8.70693 -18.13357,-2.70343 -32.99185,-2.82081 -47.30088,-0.37368 -11.9819,2.04914 -23.95279,7.11008 -28.1246,9.56964 -3.63293,2.14185 -8.41791,4.23283 -18.70057,13.83619 -80.62745,75.30105 13.47853,-51.41841 30.84071,-48.58586 z m -4.58063,1.59068 c 7.58466,-6.94951 57.21792,-4.72133 62.69054,-4.33485 2.3643,0.16697 6.33402,0.4509 8.80902,0.92913 21.42189,4.13928 33.88238,7.41068 41.91889,11.06052 2.26024,1.0265 4.15411,1.78484 4.50365,1.95074 35.91728,17.04707 -138.02231,8.81146 -117.9221,-9.60554 z"
     id="path39"
     sodipodi:nodetypes="ssssssssssssssss" /><path
     style="display:inline;fill:url(#linearGradient47);fill-opacity:1"
     d="m 75.765163,232.99168 c 2.71159,-11.90481 8.87102,-22.67865 18.53203,-32.41553 4.675001,-4.71172 10.625637,-9.59473 12.999997,-11.20536 13.66777,-9.27143 26.15206,-12.91636 34.04232,-14.24075 z m -0.0143,0.84962 c 0.014,-1.97996 18.51004,-30.4844 23.830841,-35.4344 16.987036,-15.80323 15.963916,-14.47561 27.827206,-19.69045 3.90746,-1.71763 42.77356,-11.02605 50.12118,-5.29126 2.22882,1.73959 18.46714,32.98435 16.26714,31.64849 -11.41127,-6.92905 -13.37976,-7.25717 -32.60254,-5.43427 -17.24338,1.63519 -32.61341,7.43565 -43.59858,16.45357 -6.61344,5.42908 -9.32186,8.68793 -12.9147,15.53932 -2.71312,5.17379 -3.85645,6.21172 -3.85645,17.5 0,11.50427 1.09454,12.20655 3.93209,17 17.07088,26.36931 -29.132947,-14.41676 -29.006187,-32.291 z"
     id="path45"
     sodipodi:nodetypes="cssccsssssssssss" /><path
     style="display:inline;fill:url(#linearGradient44);fill-opacity:1"
     d="m 154.46136,88.416101 c -4.07294,14.140579 -5.00511,31.578309 3.094,47.026299 l -20.83258,18.6899 c -3.10121,-4.9722 -6.44112,-12.54751 -9.25877,-21 -2.47596,-7.42745 -3.94684,-9.30506 -3.92593,-25.08839 0.0209,-15.800809 1.49095,-17.440659 3.95233,-24.411609 z m 3.1512,47.131619 c 1.21568,2.80904 6.1794,23.14677 46.43257,44.27652 2.65149,1.39182 14.8258,9.62483 21.69914,11.98502 15.86204,5.44677 -1.10251,22.0342 -4.34257,25.95027 -2.66838,3.22513 -10.70213,-3.13168 -19.10451,-7.77189 -2.475,-1.36681 -6.29768,-3.58193 -8.5,-4.91396 -33.96168,-20.54098 -43.43015,-30.14637 -57.2164,-51.16138 -2.00837,-3.06145 19.3477,-22.25591 21.03177,-18.36458 z"
     id="path42"
     sodipodi:nodetypes="cccssccssssssss" /><path
     id="path51"
     style="display:inline;fill:#54d62c;fill-opacity:1"
     d="m 193.62922,31.354961 c -12.1137,0.3381 -23.83489,3.75242 -33.83203,10.0664 -15.71741,9.92686 -25.35244,22.51559 -32.30664,42.21094 -2.46138,6.97085 -2.64902,8.69939 -2.66992,24.499999 -0.005,4.10339 0.011,7.20703 0.0703,9.76367 4.7861,-0.74093 9.54857,-1.69751 14.28906,-2.54492 8.06891,-1.47152 8.02004,-1.46785 11.95117,-2.19922 -1.05111,-14.533669 4.24093,-30.955529 14.10547,-41.228509 6.62009,-6.8942 11.85908,-9.96633 21.06836,-12.35352 6.67922,-1.622 11.1779,-1.42743 17.74219,0.0156 12.73844,2.80151 20.67689,7.34434 26.30273,15.05079 4.56972,6.25954 6.78198,10.76658 8.43555,17.1875 0.89351,3.46942 2.0761,7.88359 2.62695,9.808589 1.60279,5.60102 2.19684,27.72448 0.99415,37 -2.94244,22.69126 -5.48047,32.0303 -12.22852,44.99219 -4.8647,9.34396 -13.25259,22.73708 -22.03516,34.40039 -10.7252,12.70083 -27.33142,27.80439 -34.13086,35.10742 -4.95204,5.3188 -10.60089,13.05565 -13.0656,16.21025 -3.79451,4.85661 -10.03317,11.86246 -13.24885,12.99092 -4.00091,1.40401 -13.80332,2.33379 -17.40039,1.65039 -10.83096,-2.05778 -19.9742,-8.44769 -25.54102,-17.85156 -2.83745,-4.79345 -3.92688,-11.15825 -3.93125,-17 -0.004,-5.68189 1.18243,-11.77569 2.78477,-15.26172 -8.366077,-3.24265 -16.711947,-6.53774 -24.976557,-10.02539 -1.18926,2.97329 -2.1548,6.01884 -2.86719,9.14649 -7.54723,33.13487 7.89077,63.51708 37.748047,74.2871 6.55187,2.36343 22.90168,4.90581 25.39453,3.94922 1.74273,-0.66875 2.38635,1.6695 2.40625,8.73633 0.0455,16.16368 6.9636,32.73815 18.44531,44.19336 8.10543,8.08672 13.12434,11.15144 24.73438,15.09766 7.50187,2.54978 13.6208,2.74609 21.30273,2.74609 6.821,0 15.2887,-1.4187 16.79492,-1.75391 1.88861,-0.42032 2.19028,-0.4655 4.71094,-1.11132 2.75542,-0.70597 10.80722,-4.37755 14.60742,-7.13282 9.70556,-7.03662 18.88463,-17.84521 22.38867,-23.56054 3.07406,-5.01394 9.52365,-18.62015 9.02539,-18.53125 -0.49542,0.0884 5.81913,6.30707 9.17578,9.90429 3.9093,4.18948 8.48982,7.73234 13.1504,11.07813 5.36905,3.99708 9.8636,6.27942 18.15429,9.21484 7.11364,2.51873 13.33331,2.79102 19.99219,2.79102 6.07063,0 13.2265,-0.45929 18.5,-2.26953 8.75423,-3.00506 15.58922,-6.93285 22.98514,-14.30515 14.47321,-14.4267 21.05326,-32.462 19.7297,-51.95267 l -0.52734,-7.76171 6.65625,-3.91797 c 16.14254,-9.4998 28.14507,-26.21425 32.58008,-45.37305 3.87642,-16.7461 -0.36584,-38.00068 -10.66602,-53.44727 -2.38831,-3.5816 -9.22542,-10.82365 -14.73828,-15.85351 -1.04437,1.31699 -1.25107,1.56891 -4.0293,5.11328 -3.28443,4.153 -6.53817,8.3259 -9.74023,12.54297 -1.00296,1.32089 -1.99251,2.65121 -2.98438,3.98047 4.68229,4.25672 10.01045,10.86801 12.2168,15.53125 7.56313,15.98515 4.41761,34.2824 -8.05078,46.84179 -5.48933,5.52953 -6.93631,6.73304 -10.17969,8.46875 -1.1667,0.6244 -2.26188,1.13286 -2.43554,1.13086 -0.17366,-0.002 -2.37737,-2.13921 -4.89649,-4.75 -4.16078,-4.31218 -9.68855,-9.24607 -10.35741,-9.24607 -0.14673,0 -3.33246,-2.01316 -7.08008,-4.47461 -6.34636,-4.16837 -18.46212,-10.52539 -20.06054,-10.52539 -0.38691,0 -2.55236,-0.85765 -4.8125,-1.90625 -3.92171,-1.81941 -8.89032,-3.52724 -15.41016,-5.2832 -3.98365,7.12432 -7.26249,14.62852 -10.54492,22.0957 -0.90684,2.16049 -1.08386,2.57949 -1.36133,3.24023 7.5592,1.86117 14.59285,3.85345 16.70703,4.91797 0.825,0.41542 5.44209,2.57797 10.25977,4.80469 15.50016,7.16411 24.81968,15.24936 29.94921,25.98633 2.78384,5.82689 2.9926,6.99193 2.5254,14 -0.32864,4.92851 -1.25897,9.13665 -2.6211,11.8457 -2.13756,5.51861 -4.69162,10.20223 -8.84375,14.62695 -5.45847,5.45858 -10.63748,7.14208 -14.93638,8.29397 -4.48995,1.20308 -7.74358,1.48752 -14.74135,-0.0694 -12.74469,-2.83535 -27.67779,-14.6976 -35.48633,-28.18945 -1.86653,-3.22504 -5.62876,-10.93837 -6.82422,-13.22976 -1.3178,-2.52588 -4.24397,-10.18608 -8.98633,-14.92844 -2.38846,-2.38847 -3.4695,-2.70508 -9.25,-2.70508 -5.4576,0 -6.98919,0.39149 -9.21484,2.35938 -2.95615,2.61371 -3.62914,4.60394 -4.79102,14.14062 -2.05323,16.85281 -6.89184,33.07441 -12.51367,41.94922 -4.41055,9.96895 -16.21814,16.85035 -26.32422,19.6289 -6.66854,1.78896 -11.06159,1.66465 -18.92969,-0.53906 -6.75171,-1.89105 -13.43198,-5.77533 -17.0664,-9.92187 -1.26202,-1.43983 -3.72812,-5.54219 -5.48047,-9.11719 -2.93404,-5.98571 -3.18641,-7.29116 -3.19141,-16.5 -0.004,-8.96059 0.30351,-10.67565 2.95899,-16.5 4.95848,-10.87589 11.59644,-19.17224 24.74804,-31.61133 25.80261,-24.40472 36.78672,-37.74905 54.75977,-67.73047 1.15076,-1.89462 1.69596,-3.03597 2.75693,-4.82153 0.2458,-0.41367 1.61919,-3.67597 3.24307,-7.18042 2.77726,-5.99353 3.19144,-7.6033 4.46484,-11.00586 2.62979,-7.0269 6.6325,-25.30839 7.75391,-41.36328 1.26677,-18.13605 -1.3477,-42.568119 -2.85742,-48.324219 -1.50972,-5.75611 -4.06585,-13.58445 -5.4635,-16.56932 -1.39764,-2.98486 -4.62308,-8.28754 -6.4596,-11.23541 -1.83653,-2.94786 -5.06323,-7.12886 -5.06323,-7.12886 l -2.4375,-2.63868 c -7.0842,-7.66304 -18.78433,-14.28204 -31.66406,-17.91597 -7.26286,-2.04913 -14.67322,-2.95482 -21.94141,-2.75195 z"
     sodipodi:nodetypes="sssccccscccsscscssssssccssssssssscssscsssccccssccscssssssssscccssssscssssssssssssscsscsssszzzccss" /></svg>
